name rise49.5252peak65.1548fall88.8305.mot
datacolumns 19
datarows 30
range 9.10495900000000 9.15329700000000
endheader
time	ground_force1_vx	ground_force1_vy	ground_force1_vz	ground_force1_px	ground_force1_py	ground_force1_pz	ground_force2_vx	ground_force2_vy	ground_force2_vz	ground_force2_px	ground_force2_py	ground_force2_pz	ground_torque1_x	ground_torque1_y	ground_torque1_z	ground_torque2_x	ground_torque2_y	ground_torque2_z	
9.10495900000000	4.76876200000000	689.57191100000000	43.56497400000000	0.26315500000000	0.00000000000000	0.12630400000000	0.00000000000000	0.00000000000000	0.00000000000000	0.00000000000000	0.00000000000000	0.00000000000000	0.00000000000000	21.52466600000000	0.00000000000000	0.00000000000000	0.00000000000000	0.00000000000000	
9.10662900000000	4.26696200000000	689.99566500000003	43.58755600000000	0.26260100000000	0.00000000000000	0.12633500000000	0.00000000000000	0.00000000000000	0.00000000000000	0.00000000000000	0.00000000000000	0.00000000000000	0.00000000000000	21.61569200000000	0.00000000000000	0.00000000000000	0.00000000000000	0.00000000000000	
9.10829200000000	3.75100400000000	690.44997400000000	43.61488600000000	0.26206600000000	0.00000000000000	0.12636500000000	0.00000000000000	0.00000000000000	0.00000000000000	0.00000000000000	0.00000000000000	0.00000000000000	0.00000000000000	21.71428800000000	0.00000000000000	0.00000000000000	0.00000000000000	0.00000000000000	
9.10996200000000	3.22035400000000	690.93511899999999	43.64687300000000	0.26154900000000	0.00000000000000	0.12639300000000	0.00000000000000	0.00000000000000	0.00000000000000	0.00000000000000	0.00000000000000	0.00000000000000	0.00000000000000	21.82037800000000	0.00000000000000	0.00000000000000	0.00000000000000	0.00000000000000	
9.11162900000000	2.67452200000000	691.45149700000002	43.68343900000000	0.26104500000000	0.00000000000000	0.12642100000000	0.00000000000000	0.00000000000000	0.00000000000000	0.00000000000000	0.00000000000000	0.00000000000000	0.00000000000000	21.93387800000000	0.00000000000000	0.00000000000000	0.00000000000000	0.00000000000000	
9.11329600000000	2.11306300000000	691.99961299999995	43.72451800000000	0.26055400000000	0.00000000000000	0.12644700000000	0.00000000000000	0.00000000000000	0.00000000000000	0.00000000000000	0.00000000000000	0.00000000000000	0.00000000000000	22.05470100000000	0.00000000000000	0.00000000000000	0.00000000000000	0.00000000000000	
9.11496000000000	1.53557600000000	692.58007699999996	43.77005700000000	0.26007200000000	0.00000000000000	0.12647200000000	0.00000000000000	0.00000000000000	0.00000000000000	0.00000000000000	0.00000000000000	0.00000000000000	0.00000000000000	22.18275200000000	0.00000000000000	0.00000000000000	0.00000000000000	0.00000000000000	
9.11662500000000	0.94171000000000	693.19359699999995	43.82001800000000	0.25959600000000	0.00000000000000	0.12649700000000	0.00000000000000	0.00000000000000	0.00000000000000	0.00000000000000	0.00000000000000	0.00000000000000	0.00000000000000	22.31793100000000	0.00000000000000	0.00000000000000	0.00000000000000	0.00000000000000	
9.11829200000000	0.33116500000000	693.84097299999996	43.87437400000000	0.25912300000000	0.00000000000000	0.12652100000000	0.00000000000000	0.00000000000000	0.00000000000000	0.00000000000000	0.00000000000000	0.00000000000000	0.00000000000000	22.46013300000000	0.00000000000000	0.00000000000000	0.00000000000000	0.00000000000000	
9.11995900000000	-0.29630900000000	694.52308400000004	43.93310800000000	0.25865200000000	0.00000000000000	0.12654500000000	0.00000000000000	0.00000000000000	0.00000000000000	0.00000000000000	0.00000000000000	0.00000000000000	0.00000000000000	22.60924400000000	0.00000000000000	0.00000000000000	0.00000000000000	0.00000000000000	
9.12163000000000	-0.94090700000000	695.24088900000004	43.99621900000000	0.25817900000000	0.00000000000000	0.12656900000000	0.00000000000000	0.00000000000000	0.00000000000000	0.00000000000000	0.00000000000000	0.00000000000000	0.00000000000000	22.76514600000000	0.00000000000000	0.00000000000000	0.00000000000000	0.00000000000000	
9.12329800000000	-1.60276900000000	695.99540999999999	44.06371400000000	0.25770300000000	0.00000000000000	0.12659200000000	0.00000000000000	0.00000000000000	0.00000000000000	0.00000000000000	0.00000000000000	0.00000000000000	0.00000000000000	22.92771400000000	0.00000000000000	0.00000000000000	0.00000000000000	0.00000000000000	
9.12495800000000	-2.28198100000000	696.78772700000002	44.13561200000000	0.25721900000000	0.00000000000000	0.12661500000000	0.00000000000000	0.00000000000000	0.00000000000000	0.00000000000000	0.00000000000000	0.00000000000000	0.00000000000000	23.09681600000000	0.00000000000000	0.00000000000000	0.00000000000000	0.00000000000000	
9.12662700000000	-2.97857100000000	697.61896700000000	44.21194000000000	0.25672700000000	0.00000000000000	0.12663900000000	0.00000000000000	0.00000000000000	0.00000000000000	0.00000000000000	0.00000000000000	0.00000000000000	0.00000000000000	23.27231400000000	0.00000000000000	0.00000000000000	0.00000000000000	0.00000000000000	
9.12829300000000	-3.69250800000000	698.49029299999995	44.29273700000000	0.25622300000000	0.00000000000000	0.12666300000000	0.00000000000000	0.00000000000000	0.00000000000000	0.00000000000000	0.00000000000000	0.00000000000000	0.00000000000000	23.45406300000000	0.00000000000000	0.00000000000000	0.00000000000000	0.00000000000000	
9.12996300000000	-4.42370500000000	699.40289600000006	44.37804700000000	0.25570600000000	0.00000000000000	0.12668700000000	0.00000000000000	0.00000000000000	0.00000000000000	0.00000000000000	0.00000000000000	0.00000000000000	0.00000000000000	23.64191000000000	0.00000000000000	0.00000000000000	0.00000000000000	0.00000000000000	
9.13163200000000	-5.17201500000000	700.35798399999999	44.46792600000000	0.25517300000000	0.00000000000000	0.12671200000000	0.00000000000000	0.00000000000000	0.00000000000000	0.00000000000000	0.00000000000000	0.00000000000000	0.00000000000000	23.83569800000000	0.00000000000000	0.00000000000000	0.00000000000000	0.00000000000000	
9.13329600000000	-5.93723100000000	701.35676799999999	44.56243300000000	0.25462200000000	0.00000000000000	0.12673700000000	0.00000000000000	0.00000000000000	0.00000000000000	0.00000000000000	0.00000000000000	0.00000000000000	0.00000000000000	24.03526100000000	0.00000000000000	0.00000000000000	0.00000000000000	0.00000000000000	
9.13496100000000	-6.71908900000000	702.40045399999997	44.66163400000000	0.25405100000000	0.00000000000000	0.12676300000000	0.00000000000000	0.00000000000000	0.00000000000000	0.00000000000000	0.00000000000000	0.00000000000000	0.00000000000000	24.24042700000000	0.00000000000000	0.00000000000000	0.00000000000000	0.00000000000000	
9.13662300000000	-7.51726600000000	703.49023099999999	44.76560300000000	0.25346000000000	0.00000000000000	0.12679000000000	0.00000000000000	0.00000000000000	0.00000000000000	0.00000000000000	0.00000000000000	0.00000000000000	0.00000000000000	24.45101800000000	0.00000000000000	0.00000000000000	0.00000000000000	0.00000000000000	
9.13829500000000	-8.33137900000000	704.62725999999998	44.87441600000000	0.25284500000000	0.00000000000000	0.12681800000000	0.00000000000000	0.00000000000000	0.00000000000000	0.00000000000000	0.00000000000000	0.00000000000000	0.00000000000000	24.66684900000000	0.00000000000000	0.00000000000000	0.00000000000000	0.00000000000000	
9.13996400000000	-9.16099000000000	705.81266300000004	44.98815200000000	0.25220600000000	0.00000000000000	0.12684700000000	0.00000000000000	0.00000000000000	0.00000000000000	0.00000000000000	0.00000000000000	0.00000000000000	0.00000000000000	24.88772700000000	0.00000000000000	0.00000000000000	0.00000000000000	0.00000000000000	
9.14162900000000	-10.00560200000000	707.04750899999999	45.10689500000000	0.25154100000000	0.00000000000000	0.12687700000000	0.00000000000000	0.00000000000000	0.00000000000000	0.00000000000000	0.00000000000000	0.00000000000000	0.00000000000000	25.11345500000000	0.00000000000000	0.00000000000000	0.00000000000000	0.00000000000000	
9.14329000000000	-10.86466300000000	708.33280999999999	45.23073100000000	0.25084900000000	0.00000000000000	0.12690800000000	0.00000000000000	0.00000000000000	0.00000000000000	0.00000000000000	0.00000000000000	0.00000000000000	0.00000000000000	25.34382900000000	0.00000000000000	0.00000000000000	0.00000000000000	0.00000000000000	
9.14495700000000	-11.73756800000000	709.66950299999996	45.35974500000000	0.25013000000000	0.00000000000000	0.12694100000000	0.00000000000000	0.00000000000000	0.00000000000000	0.00000000000000	0.00000000000000	0.00000000000000	0.00000000000000	25.57863900000000	0.00000000000000	0.00000000000000	0.00000000000000	0.00000000000000	
9.14662900000000	-12.62365600000000	711.05844300000001	45.49402600000000	0.24938200000000	0.00000000000000	0.12697500000000	0.00000000000000	0.00000000000000	0.00000000000000	0.00000000000000	0.00000000000000	0.00000000000000	0.00000000000000	25.81766800000000	0.00000000000000	0.00000000000000	0.00000000000000	0.00000000000000	
9.14829300000000	-13.52221900000000	712.50039300000003	45.63366000000000	0.24860500000000	0.00000000000000	0.12701000000000	0.00000000000000	0.00000000000000	0.00000000000000	0.00000000000000	0.00000000000000	0.00000000000000	0.00000000000000	26.06069500000000	0.00000000000000	0.00000000000000	0.00000000000000	0.00000000000000	
9.14995900000000	-14.43249500000000	713.99601199999995	45.77873300000000	0.24780000000000	0.00000000000000	0.12704600000000	0.00000000000000	0.00000000000000	0.00000000000000	0.00000000000000	0.00000000000000	0.00000000000000	0.00000000000000	26.30749200000000	0.00000000000000	0.00000000000000	0.00000000000000	0.00000000000000	
9.15162300000000	-15.35368000000000	715.54585099999997	45.92932900000000	0.24696400000000	0.00000000000000	0.12708400000000	0.00000000000000	0.00000000000000	0.00000000000000	0.00000000000000	0.00000000000000	0.00000000000000	0.00000000000000	26.55782600000000	0.00000000000000	0.00000000000000	0.00000000000000	0.00000000000000	
9.15329700000000	-16.28492100000000	717.15033600000004	46.08553000000000	0.24610000000000	0.00000000000000	0.12712300000000	0.00000000000000	0.00000000000000	0.00000000000000	0.00000000000000	0.00000000000000	0.00000000000000	0.00000000000000	26.81146100000000	0.00000000000000	0.00000000000000	0.00000000000000	0.00000000000000	
